<?xml version="1.0" standalone="no"?>
<!DOCTYPE svg PUBLIC "-//W3C//DTD SVG 20010904//EN"
 "http://www.w3.org/TR/2001/REC-SVG-20010904/DTD/svg10.dtd">
<svg version="1.0" xmlns="http://www.w3.org/2000/svg"
 width="300.000000pt" height="260.000000pt" viewBox="0 0 300.000000 260.000000"
 preserveAspectRatio="xMidYMid meet">
<metadata>
Created by potrace 1.10, written by Peter Selinger 2001-2011
</metadata>
<g transform="translate(0.000000,260.000000) scale(0.100000,-0.100000)"
fill="#000000" stroke="none">
<path d="M1536 2584 c-3 -9 -4 -20 0 -25 3 -5 0 -9 -6 -9 -6 0 -9 -4 -6 -8 3
-5 -11 -50 -30 -101 -19 -50 -35 -100 -37 -109 -1 -9 -6 -23 -10 -29 -5 -7 -6
-13 -3 -13 2 0 -13 -51 -34 -114 -21 -63 -36 -117 -32 -120 3 -3 0 -6 -7 -6
-7 0 -11 -6 -8 -12 2 -7 -16 -70 -39 -141 -24 -70 -44 -136 -44 -147 0 -11 -5
-20 -11 -20 -5 0 -8 -4 -5 -9 4 -5 -14 -67 -39 -137 -25 -70 -48 -141 -51
-158 -3 -17 -9 -49 -14 -71 -14 -61 -12 -216 4 -268 8 -26 12 -47 9 -47 -3 0
0 -6 6 -13 6 -8 8 -17 4 -20 -3 -4 -1 -7 6 -7 7 0 10 -4 7 -8 -14 -23 198
-222 235 -222 5 0 11 0 14 0 3 0 18 -6 35 -15 16 -8 34 -15 40 -15 21 0 -14
25 -81 57 -36 18 -76 42 -90 54 -13 11 -33 29 -44 38 -40 32 -84 97 -107 156
-19 51 -22 78 -22 182 1 108 5 135 34 230 18 59 38 124 45 143 7 19 25 73 39
120 15 47 30 92 33 100 3 8 8 24 10 35 2 11 26 92 54 180 28 88 64 203 81 255
16 52 32 102 35 110 4 8 7 17 7 20 10 53 46 115 46 78 0 -7 9 -35 19 -63 11
-27 47 -138 81 -245 34 -107 68 -211 76 -230 8 -19 15 -44 17 -55 2 -11 17
-63 34 -115 28 -86 72 -230 78 -255 1 -5 5 -17 8 -25 43 -114 50 -143 54 -235
5 -110 -2 -138 -55 -210 -94 -130 -321 -137 -456 -14 -64 58 -91 111 -101 196
-9 81 -26 71 -21 -12 7 -98 53 -172 145 -234 65 -43 109 -63 121 -56 5 3 11 2
14 -3 5 -9 123 -7 170 3 67 14 139 81 182 170 43 88 45 155 8 281 -14 49 -27
94 -28 99 -1 6 -5 16 -9 23 -5 6 -6 12 -3 12 3 0 -12 51 -34 114 -22 63 -42
127 -45 144 -3 17 -23 81 -46 144 -22 62 -40 114 -40 116 1 1 1 3 0 5 0 1 -2
11 -4 23 -3 12 -22 70 -44 129 -22 60 -38 112 -35 117 3 4 0 8 -6 8 -7 0 -10
7 -6 15 3 8 1 15 -5 15 -6 0 -8 4 -5 9 3 4 -8 43 -25 86 -28 73 -37 103 -38
133 -1 17 -18 15 -25 -4z"/>
<path d="M2025 2415 c-17 -7 -56 -42 -87 -78 -57 -64 -58 -65 -90 -53 -18 6
-38 14 -44 18 -29 19 -25 4 68 -252 21 -58 26 -77 27 -98 1 -7 6 -10 13 -6 7
4 8 3 4 -5 -4 -6 7 -49 24 -94 17 -46 33 -92 35 -103 2 -10 4 -19 5 -19 1 0 3
-7 5 -15 2 -8 17 -53 34 -99 17 -46 33 -96 34 -110 2 -15 7 -32 11 -39 4 -7 5
-16 1 -21 -3 -5 -1 -12 3 -15 11 -7 13 -228 2 -241 -5 -5 -9 -13 -9 -17 -1 -5
-1 -9 -2 -10 0 -2 -2 -11 -4 -21 -2 -10 -16 -36 -31 -58 -97 -140 -276 -218
-435 -190 -179 31 -309 150 -310 284 0 10 -4 29 -9 41 -4 12 -5 41 0 65 5 28
4 39 -2 33 -6 -6 -14 -31 -19 -57 -11 -57 9 -148 47 -212 43 -74 136 -143 224
-165 19 -5 44 -11 55 -14 33 -8 148 -5 183 5 17 5 32 8 32 6 0 -2 30 12 68 30
167 83 245 211 245 400 0 94 -11 156 -44 261 -11 33 -21 69 -24 80 -2 10 -19
57 -36 104 -18 47 -32 95 -33 108 -1 12 -4 22 -8 22 -11 0 -30 73 -26 98 3 21
4 21 51 -9 41 -28 47 -36 47 -66 0 -24 7 -41 23 -54 28 -24 36 -24 30 0 -10
37 16 30 56 -15 33 -38 40 -52 35 -73 -8 -32 -8 -31 1 -58 9 -28 22 -29 30 -3
10 31 21 24 44 -31 18 -40 20 -57 13 -82 -11 -36 -11 -77 -1 -77 4 0 12 7 19
15 18 22 25 12 39 -52 13 -56 13 -57 -13 -80 -20 -17 -25 -28 -20 -48 5 -20 9
-23 24 -15 29 15 30 14 30 -49 0 -57 -2 -60 -34 -80 -37 -23 -57 -75 -27 -69
10 2 15 12 13 25 -2 14 7 28 28 43 28 20 30 25 30 87 0 64 0 65 -25 61 -32 -6
-34 17 -4 48 19 20 20 26 8 84 -12 62 -33 86 -50 59 -5 -8 -9 -9 -10 -4 -3 21
3 50 13 62 7 8 2 30 -17 68 -25 54 -55 81 -63 57 -2 -7 -8 -12 -14 -12 -7 0
-8 15 -4 40 6 36 3 44 -31 82 -21 24 -42 46 -48 50 -17 13 -35 9 -35 -7 0 -32
-18 -13 -24 25 -6 37 -48 95 -60 82 -3 -3 -15 3 -26 13 -10 9 -26 15 -34 12
-16 -6 -14 -12 -67 142 l-39 114 34 -6 c29 -5 39 -1 63 24 81 85 118 119 132
119 17 0 138 -65 164 -88 22 -20 22 -65 -3 -154 l-20 -72 22 -32 c12 -18 25
-31 29 -28 4 2 14 -8 24 -22 19 -29 75 -56 90 -44 22 16 143 49 163 43 14 -3
36 -30 59 -72 20 -36 40 -68 43 -71 30 -23 0 -84 -72 -145 -56 -48 -59 -60
-36 -145 11 -40 25 -79 32 -85 6 -6 40 -17 76 -24 83 -15 117 -29 125 -49 3
-9 6 -56 6 -105 0 -79 -3 -91 -22 -108 -12 -10 -27 -19 -33 -20 -12 -1 -17 -2
-95 -24 -30 -8 -58 -18 -62 -22 -4 -5 -17 -44 -28 -87 l-20 -80 37 -42 c20
-23 43 -43 50 -43 8 -1 16 -10 19 -21 3 -11 9 -17 14 -14 5 3 14 -7 21 -22 13
-28 6 -45 -65 -156 -36 -57 -52 -59 -165 -28 -39 11 -75 20 -79 20 -5 0 -34
-26 -67 -57 -57 -55 -58 -58 -52 -99 3 -23 12 -61 21 -85 28 -83 16 -111 -64
-148 -20 -9 -47 -24 -61 -33 -38 -26 -69 -15 -125 44 -74 79 -93 92 -107 81
-7 -6 -26 -13 -43 -17 -114 -27 -110 -22 -141 -149 -22 -88 -33 -95 -149 -95
-107 0 -117 7 -135 94 -19 95 -29 121 -53 129 -12 4 -24 8 -27 9 -3 1 -33 8
-66 15 l-61 13 -71 -71 c-55 -55 -75 -69 -94 -66 -27 6 -135 61 -160 83 -24
20 -23 65 2 137 11 32 20 68 20 79 0 26 -104 136 -128 136 -9 0 -51 -11 -93
-24 -88 -27 -123 -20 -149 30 -8 16 -24 45 -36 64 -11 19 -24 47 -27 61 -7 26
9 46 102 133 18 17 31 39 31 53 0 38 -33 147 -48 159 -8 6 -42 16 -76 24 -68
15 -107 30 -118 45 -4 5 -8 54 -8 107 0 73 4 100 15 112 8 8 50 22 93 31 42
10 85 25 95 34 15 15 39 84 52 153 2 11 -20 41 -58 79 -34 34 -61 66 -59 71 1
5 -2 7 -7 4 -5 -4 -12 2 -16 13 -4 13 8 42 35 85 22 37 40 69 40 72 0 11 26
31 48 36 12 4 56 -4 99 -18 42 -13 82 -24 90 -24 7 0 40 26 73 59 l60 58 -21
79 c-11 43 -23 82 -25 86 -3 5 -3 21 1 36 4 21 24 38 90 75 53 31 91 47 102
43 19 -6 113 -94 113 -105 0 -4 13 -14 29 -24 23 -13 35 -15 55 -7 24 9 26 8
22 -14 -9 -49 -60 -192 -74 -208 -8 -10 -21 -18 -27 -18 -7 0 -19 -7 -26 -16
-11 -14 -10 -18 5 -30 18 -12 18 -14 2 -20 -9 -3 -31 -4 -49 0 -26 5 -29 4
-13 -5 10 -7 36 -9 60 -5 28 4 36 3 26 -3 -8 -6 -16 -18 -17 -28 0 -10 -22
-79 -47 -153 -104 -303 -126 -396 -122 -518 4 -121 7 -137 57 -240 59 -122
170 -224 294 -269 65 -24 157 -32 180 -17 18 13 17 14 -16 14 -19 0 -62 7 -94
16 -33 8 -67 17 -75 19 -66 15 -175 101 -229 180 -41 60 -77 135 -65 135 4 0
1 7 -6 15 -6 8 -9 19 -6 24 4 5 2 12 -3 15 -5 3 -7 63 -5 133 4 166 4 162 15
168 5 4 7 10 4 15 -3 5 10 52 29 104 20 53 33 96 29 96 -3 0 0 6 6 13 6 8 8
17 4 20 -3 4 -1 7 6 7 7 0 10 4 7 9 -3 4 14 62 38 127 24 65 42 123 39 130 -2
6 -16 17 -31 24 l-27 12 25 14 c35 19 46 17 27 -4 -15 -16 -15 -19 4 -31 12
-7 18 -8 15 -3 -3 5 8 47 25 93 17 46 40 113 51 149 10 36 21 73 25 82 5 16 1
16 -47 -2 l-52 -19 -31 37 c-75 88 -104 112 -135 112 -37 0 -188 -83 -203
-112 -13 -25 -6 -85 19 -161 l20 -59 -56 -54 -56 -54 -65 21 c-100 33 -133 35
-164 7 -29 -26 -107 -168 -107 -193 0 -10 34 -52 75 -94 l74 -76 -21 -70 c-11
-39 -23 -73 -27 -77 -3 -3 -24 -9 -46 -12 -22 -3 -49 -8 -60 -10 -11 -3 -28
-5 -37 -5 -9 -1 -30 -13 -47 -27 -31 -26 -31 -26 -31 -130 0 -99 1 -106 25
-128 15 -14 59 -32 114 -46 l89 -23 19 -71 19 -71 -73 -70 c-88 -85 -90 -95
-31 -201 72 -128 76 -130 209 -88 l82 26 54 -54 c40 -39 53 -58 49 -73 -3 -11
-14 -54 -25 -95 -16 -56 -18 -81 -11 -100 13 -31 164 -120 204 -120 21 0 46
17 100 70 l73 70 43 -15 c23 -8 55 -15 71 -15 33 0 37 -5 44 -61 9 -71 26
-123 48 -147 19 -20 29 -22 128 -22 142 0 140 -2 181 170 13 55 13 55 58 61
25 4 58 12 74 18 28 11 32 9 101 -59 95 -92 91 -92 262 6 56 33 59 87 11 218
l-14 38 57 55 57 54 82 -25 c44 -14 91 -26 104 -26 27 0 54 28 91 95 15 28 34
59 41 70 31 44 19 75 -62 150 -65 61 -75 74 -67 91 6 10 16 42 22 70 l12 51
90 23 c55 14 98 32 114 46 23 22 25 29 25 122 0 140 -18 159 -165 177 -27 4
-53 10 -56 13 -4 4 -16 38 -27 77 l-21 70 74 76 c41 42 75 84 75 94 0 9 -24
59 -52 111 -46 81 -57 95 -83 99 -29 5 -44 4 -75 -7 -8 -3 -40 -13 -72 -22
l-56 -16 -56 56 c-31 30 -54 59 -52 63 10 16 46 162 46 185 0 26 -41 60 -130
107 -70 37 -74 38 -105 24z"/>
<path d="M1013 1914 c-44 -37 -57 -74 -26 -74 31 0 -3 -22 -39 -25 -28 -2 -39
-11 -73 -59 -37 -53 -39 -59 -22 -70 24 -18 21 -36 -5 -36 -12 0 -18 -3 -15
-7 4 -3 -3 -11 -14 -17 -12 -7 -29 -34 -40 -66 -23 -67 -23 -80 -4 -80 23 0
18 -24 -10 -50 -23 -21 -25 -30 -23 -94 l2 -71 3 71 c4 64 6 71 32 87 16 9 32
31 38 51 11 34 10 34 -13 24 -13 -6 -26 -9 -29 -6 -3 3 5 32 17 66 18 50 27
62 48 67 14 3 34 19 44 35 l17 30 -25 0 c-14 0 -26 2 -26 5 0 3 15 28 33 55
27 42 37 50 63 50 19 0 39 9 54 25 l23 25 -21 0 c-31 0 -28 8 20 57 51 52 48
55 -9 7z"/>
<path d="M2100 1841 c0 -6 4 -13 10 -16 6 -3 7 1 4 9 -7 18 -14 21 -14 7z"/>
<path d="M916 1763 c-6 -14 -5 -15 5 -6 7 7 10 15 7 18 -3 3 -9 -2 -12 -12z"/>
<path d="M2150 1690 c0 -5 5 -10 11 -10 5 0 7 5 4 10 -3 6 -8 10 -11 10 -2 0
-4 -4 -4 -10z"/>
<path d="M910 1670 c-6 -11 -8 -20 -6 -20 3 0 10 9 16 20 6 11 8 20 6 20 -3 0
-10 -9 -16 -20z"/>
<path d="M1121 1394 c0 -11 3 -14 6 -6 3 7 2 16 -1 19 -3 4 -6 -2 -5 -13z"/>
<path d="M771 1286 c-9 -11 -9 -15 1 -19 10 -3 9 -13 -6 -41 -18 -34 -18 -41
-5 -99 13 -55 17 -62 39 -62 26 0 40 -28 21 -40 -6 -3 -11 -14 -11 -23 1 -12
5 -9 15 10 11 19 13 37 7 65 -8 37 -9 37 -20 16 -19 -34 -27 -28 -40 28 -16
67 -15 72 8 99 20 23 28 80 11 80 -5 0 -14 -6 -20 -14z"/>
<path d="M2300 1161 c0 -5 5 -11 11 -13 9 -3 7 -20 -6 -58 -22 -70 -25 -73
-76 -79 -5 -1 -29 -46 -29 -56 0 -5 41 3 48 10 3 3 -2 5 -11 5 -10 0 -14 5
-11 14 3 8 12 12 20 9 8 -3 14 -1 14 5 0 5 8 12 18 14 21 6 56 109 47 138 -6
20 -25 28 -25 11z"/>
<path d="M851 1084 c0 -11 3 -14 6 -6 3 7 2 16 -1 19 -3 4 -6 -2 -5 -13z"/>
<path d="M2265 1060 c-3 -5 -1 -10 4 -10 6 0 11 5 11 10 0 6 -2 10 -4 10 -3 0
-8 -4 -11 -10z"/>
<path d="M810 975 c0 -7 61 -105 66 -105 7 0 -51 109 -58 109 -5 1 -8 -1 -8
-4z"/>
<path d="M2224 900 c-28 -48 -58 -68 -87 -57 -6 2 -20 -6 -30 -19 -17 -23 -17
-24 9 -30 l26 -7 -43 -43 c-38 -39 -47 -43 -78 -39 -27 4 -42 0 -61 -16 -14
-11 -20 -18 -14 -15 6 3 19 0 29 -8 16 -11 12 -16 -39 -44 -52 -30 -58 -31
-84 -18 -21 11 -33 12 -52 2 l-25 -11 22 -22 c14 -13 23 -17 23 -10 0 7 -5 18
-12 25 -16 16 21 17 55 1 20 -9 31 -7 63 13 22 14 47 27 56 31 11 4 17 15 16
31 -1 13 -6 22 -12 19 -5 -4 -6 -1 -1 6 5 8 19 11 40 7 28 -6 38 -1 80 38 48
44 56 76 19 76 -24 0 -10 12 18 15 13 2 30 5 38 6 15 4 86 107 78 114 -2 3
-17 -18 -34 -45z"/>
<path d="M895 900 c-4 -12 -4 -24 -1 -27 3 -4 6 -1 6 7 0 10 3 10 14 1 10 -8
13 -23 9 -45 -4 -26 0 -39 20 -60 14 -15 24 -34 22 -44 -1 -9 0 -11 2 -4 4 11
9 10 24 -4 37 -34 18 3 -22 41 -34 34 -40 45 -36 71 4 20 -1 41 -13 59 -18 27
-18 27 -25 5z"/>
<path d="M930 910 c0 -5 5 -10 10 -10 6 0 10 5 10 10 0 6 -4 10 -10 10 -5 0
-10 -4 -10 -10z"/>
<path d="M2175 880 c-3 -5 -1 -10 4 -10 6 0 11 5 11 10 0 6 -2 10 -4 10 -3 0
-8 -4 -11 -10z"/>
<path d="M951 814 c0 -11 3 -14 6 -6 3 7 2 16 -1 19 -3 4 -6 -2 -5 -13z"/>
<path d="M321 794 c0 -11 3 -14 6 -6 3 7 2 16 -1 19 -3 4 -6 -2 -5 -13z"/>
<path d="M2085 770 c-3 -6 1 -7 9 -4 18 7 21 14 7 14 -6 0 -13 -4 -16 -10z"/>
<path d="M1027 746 c-3 -8 1 -22 8 -33 13 -17 14 -16 8 7 -6 22 -5 24 10 11 9
-7 17 -26 17 -41 0 -15 8 -34 18 -42 26 -22 91 -58 105 -58 7 1 -16 17 -51 37
-42 23 -61 40 -58 49 8 21 -10 61 -33 73 -14 8 -20 7 -24 -3z"/>
<path d="M1998 733 c6 -2 18 -2 25 0 6 3 1 5 -13 5 -14 0 -19 -2 -12 -5z"/>
<path d="M1200 631 c0 -11 4 -23 10 -26 6 -3 7 1 4 10 -5 11 -2 14 10 9 8 -3
18 -16 22 -27 11 -36 33 -55 72 -61 20 -4 49 -9 65 -12 22 -5 27 -2 27 15 0
12 5 21 10 21 6 0 10 -8 10 -17 0 -14 2 -15 9 -4 7 11 10 9 16 -8 6 -20 12
-22 83 -19 66 3 77 5 76 21 -2 21 19 22 50 2 19 -13 32 -14 74 -4 29 6 54 15
58 20 7 12 7 12 -55 -7 -49 -14 -54 -14 -72 2 -10 9 -38 19 -61 21 l-43 5 24
-26 24 -26 -67 0 c-60 0 -69 3 -90 26 -12 15 -35 28 -49 30 -30 3 -31 1 -16
-28 10 -18 9 -20 -7 -14 -11 4 -40 12 -66 18 -44 11 -67 34 -60 60 1 4 -12 15
-28 23 -28 15 -30 14 -30 -4z"/>
<path d="M1579 587 c6 -6 20 -5 38 1 28 9 27 9 -10 9 -22 -1 -33 -5 -28 -10z"/>
<path d="M1347 569 c7 -7 15 -10 18 -7 3 3 -2 9 -12 12 -14 6 -15 5 -6 -5z"/>
<path d="M1672 564 c10 -10 20 -16 22 -13 3 3 -5 11 -17 18 -21 13 -21 12 -5
-5z"/>
</g>
</svg>
